<svg width="24" height="30" viewBox="0 0 24 30" fill="none" xmlns="http://www.w3.org/2000/svg">
<path d="M21.7356 8.1489C18.1847 0.449706 12.1079 0.873501 12 0.881687C11.8921 0.873501 5.81518 0.449706 2.26442 8.1489C0.535557 11.8975 0.105024 15.1474 0.00257158 16.7667C-0.0377096 17.403 0.398745 17.9835 1.06478 18.176L12 21.336L22.9352 18.176C23.6013 17.9836 24.0377 17.4031 23.9974 16.7667C23.895 15.1474 23.4644 11.8975 21.7356 8.1489Z" fill="#D4FFF8"/>
<path d="M23.9974 16.7667C23.8949 15.1473 23.4644 11.8974 21.7355 8.1489C18.1847 0.449706 12.1079 0.873501 11.9999 0.881687C11.957 0.878413 10.9663 0.809731 9.56585 1.21437C11.6808 1.82546 14.7311 3.51679 16.8673 8.1489C18.5961 11.8975 19.0267 15.1474 19.1292 16.7667C19.1695 17.403 18.733 17.9836 18.067 18.176L9.56585 20.6326L11.9999 21.336L22.9352 18.176C23.6011 17.9836 24.0376 17.4031 23.9974 16.7667Z" fill="#C6F4EB"/>
<path d="M19.423 18.9827L15.4027 17.9026V17.9024L14.7726 17.7868C14.3255 17.7048 14.0038 17.3464 14.0038 16.9302V16.1018H9.88198V16.9512C9.88198 17.3674 9.56027 17.7258 9.11314 17.8078L8.59711 17.9024V17.9026L4.57689 18.9827C2.66133 19.4973 1.34614 21.1017 1.34614 22.9239V30H22.6539V22.9239C22.6537 21.1017 21.3385 19.4973 19.423 18.9827Z" fill="#FED9A8"/>
<path d="M19.423 18.9827L15.4027 17.9026V17.9024L14.7726 17.7868C14.3255 17.7048 14.0038 17.3464 14.0038 16.9302V16.1018H11.9999V17.1092C11.9999 17.8129 12.5078 18.4324 13.2476 18.6311L14.5559 18.9827C16.4715 19.4973 17.7867 21.1017 17.7867 22.9239V30H22.6537V22.9239C22.6537 21.1017 21.3385 19.4973 19.423 18.9827Z" fill="#F4C892"/>
<path d="M11.9999 4.74957C13.4373 4.74957 14.6025 3.68634 14.6025 2.37479C14.6025 1.06323 13.4373 0 11.9999 0C10.5626 0 9.39735 1.06323 9.39735 2.37479C9.39735 3.68634 10.5626 4.74957 11.9999 4.74957Z" fill="#FF901D"/>
<path d="M18.9844 12.1628H17.7578V9.40674H18.9844C19.521 9.40674 19.9561 9.80376 19.9561 10.2935V11.276C19.9561 11.7658 19.521 12.1628 18.9844 12.1628Z" fill="#F4CFA6"/>
<path d="M5.0154 12.1628H6.24196V9.40674H5.0154C4.47873 9.40674 4.04362 9.80376 4.04362 10.2935V11.276C4.04362 11.7658 4.47873 12.1628 5.0154 12.1628Z" fill="#F4CFA6"/>
<path d="M12 16.5179C8.64163 16.5179 5.9192 14.0338 5.9192 10.9694V9.41011C5.9192 6.34573 8.64163 3.86157 12 3.86157C15.3583 3.86157 18.0807 6.34573 18.0807 9.41011V10.9694C18.0806 14.0338 15.3582 16.5179 12 16.5179Z" fill="#FED9A8"/>
<path d="M14.6023 4.39575V11.9739C14.6023 13.8538 13.5767 15.5142 12.0092 16.5178C15.3632 16.5132 18.0806 14.031 18.0806 10.9695V9.41023C18.0806 7.19581 16.6583 5.28566 14.6023 4.39575Z" fill="#F4CFA2"/>
<path d="M19.152 9.08741V9.00301C19.152 5.39867 15.9499 2.47681 11.9998 2.47681C8.04976 2.47681 4.84763 5.39867 4.84763 9.00301V9.08741C4.84763 9.26382 5.00435 9.40691 5.19778 9.40691H6.11716C6.3618 9.40691 6.5834 9.2752 6.68217 9.07096L7.19398 7.31807C7.37179 6.7091 8.18316 6.47694 8.71076 6.88355C10.0422 7.90959 12.3786 9.40683 14.6758 9.40683H18.802C18.9953 9.40683 19.152 9.26382 19.152 9.08741Z" fill="#FF901D"/>
<path d="M11.9999 2.47681C11.2033 2.47681 10.4379 2.59747 9.7223 2.81678C12.3885 3.65675 14.3043 5.96523 14.3043 8.68351V9.39324C14.4282 9.40167 14.5521 9.40683 14.6759 9.40683H18.8021C18.9954 9.40683 19.1522 9.26382 19.1522 9.08733V9.00293C19.152 5.39875 15.9499 2.47681 11.9999 2.47681Z" fill="#FF6D3A"/>
<path d="M19.3539 23.3924C19.3539 23.2098 19.2907 23.0314 19.1715 22.8847C18.4438 21.9892 17.2772 21.4084 15.9615 21.4084C14.7265 21.4084 13.6229 21.9199 12.8905 22.7233C12.4249 23.234 11.5749 23.234 11.1093 22.7233C10.3768 21.9199 9.27328 21.4084 8.03829 21.4084C6.72256 21.4084 5.55602 21.9892 4.82827 22.8847C4.70904 23.0314 4.64588 23.2098 4.64588 23.3924V29.9999H19.354V23.3924H19.3539Z" fill="#FFFCFD"/>
<path d="M19.1715 22.8847C18.4438 21.9892 17.2772 21.4084 15.9615 21.4084C15.0449 21.4084 14.201 21.6907 13.5271 22.1644C13.8207 22.3708 14.0825 22.613 14.3033 22.8847C14.4226 23.0314 14.4857 23.2098 14.4857 23.3924V29.9999H19.3539V23.3924C19.3539 23.2099 19.2908 23.0314 19.1715 22.8847Z" fill="#F2F2F2"/>
<path d="M9.37904 11.5099C9.14938 11.5099 8.96259 11.3395 8.96259 11.1299V10.4215C8.96259 10.2119 9.14938 10.0415 9.37904 10.0415C9.60871 10.0415 9.79549 10.2119 9.79549 10.4215V11.1299C9.79549 11.3395 9.60871 11.5099 9.37904 11.5099Z" fill="#4D4A5B"/>
<path d="M14.6207 11.5099C14.3911 11.5099 14.2043 11.3395 14.2043 11.1299V10.4215C14.2043 10.2119 14.3911 10.0415 14.6207 10.0415C14.8504 10.0415 15.0372 10.2119 15.0372 10.4215V11.1299C15.0372 11.3395 14.8504 11.5099 14.6207 11.5099Z" fill="#4D4A5B"/>
<path d="M11.9998 14.8081C11.2537 14.8081 10.5873 14.528 10.2172 14.0587C10.0831 13.8887 10.1256 13.6507 10.3121 13.5283C10.3834 13.4815 10.4673 13.4568 10.5547 13.4568C10.6888 13.4568 10.8153 13.5159 10.8934 13.6149C11.101 13.878 11.5353 14.0481 11.9998 14.0481C12.4644 14.0481 12.8987 13.8781 13.1063 13.6149C13.1843 13.5159 13.3109 13.4568 13.4448 13.4568C13.5323 13.4568 13.6162 13.4816 13.6876 13.5284C13.8739 13.6508 13.9166 13.8888 13.7824 14.0588C13.4124 14.528 12.746 14.8081 11.9998 14.8081Z" fill="#FF9FAF"/>
</svg>
