<svg width="24" height="31" viewBox="0 0 24 31" fill="none" xmlns="http://www.w3.org/2000/svg">
<path d="M15.8328 17.2706L15.123 17.1353C14.6194 17.0393 14.257 16.6196 14.257 16.1324V15.1624H9.61444V16.1569C9.61444 16.6441 9.25206 17.0637 8.74845 17.1598L8.16724 17.2706V20.9735H15.8328V17.2706Z" fill="#FED9A8"/>
<path d="M12.2388 15.1624V16.9695C12.2388 17.4568 12.6011 17.8764 13.1048 17.9724L15.8328 18.4875V17.2706L15.123 17.1353C14.6194 17.0393 14.257 16.6196 14.257 16.1324V15.1624H12.2388Z" fill="#F4C892"/>
<path d="M15.8321 17.2708L13.7267 17.7955C12.5948 18.0775 11.4053 18.0775 10.2734 17.7955L8.16796 17.2708L3.63905 18.5356C1.48143 19.1382 0 21.0167 0 23.1501V30.9997H24V23.1501C24 21.0167 22.5186 19.1381 20.3609 18.5356L15.8321 17.2708Z" fill="#4D4A5B"/>
<path d="M20.3609 18.5358L15.832 17.271L13.1761 17.9329L15.335 18.5359C17.4926 19.1384 18.974 21.017 18.974 23.1504V31.0001H24V23.1504C24 21.0169 22.5186 19.1383 20.3609 18.5358Z" fill="#444251"/>
<path d="M4.79954 30.9999V28.2979V23.8155C4.79954 23.4406 4.47915 23.1367 4.08393 23.1367C3.68872 23.1367 3.36833 23.4406 3.36833 23.8155V28.2979V30.9999H4.79954Z" fill="#3A3847"/>
<path d="M20.5279 30.9999V23.8155C20.5279 23.4406 20.2075 23.1367 19.8123 23.1367C19.4171 23.1367 19.0967 23.4406 19.0967 23.8155V30.9999H20.5279Z" fill="#3A3847"/>
<path d="M19.4216 10.922H18.0264V7.87134H19.4216C19.9931 7.87134 20.4564 8.31078 20.4564 8.85286V9.94054C20.4563 10.4825 19.993 10.922 19.4216 10.922Z" fill="#F4CFA6"/>
<path d="M4.57838 10.922H5.97361V7.87134H4.57838C4.00688 7.87134 3.54359 8.31078 3.54359 8.85286V9.94054C3.54359 10.4825 4.00688 10.922 4.57838 10.922Z" fill="#F4CFA6"/>
<path d="M11.9999 15.7424C8.42396 15.7424 5.52502 12.9927 5.52502 9.6008V7.8748C5.52502 4.48288 8.42396 1.73315 11.9999 1.73315C15.5759 1.73315 18.4749 4.48288 18.4749 7.8748V9.6008C18.4749 12.9927 15.576 15.7424 11.9999 15.7424Z" fill="#FFDFB8"/>
<path d="M14.8889 2.37842V10.8726C14.8889 12.8841 13.8349 14.6609 12.2233 15.737C15.6957 15.6252 18.4749 12.9217 18.4749 9.60072V7.87472C18.4749 5.46784 17.0144 3.38556 14.8889 2.37842Z" fill="#F4CFA2"/>
<path d="M8.16787 17.2708L6.23158 20.5138C6.18154 20.5976 6.18921 20.7015 6.2509 20.7779L12 29.2243L8.16787 17.2708Z" fill="#666277"/>
<path d="M18.9445 7.87133H19.4215C19.5732 7.87133 19.7168 7.90309 19.8467 7.95871V6.39782C19.8467 2.86439 16.8269 0 13.1017 0H10.8981C7.17295 0 4.15312 2.86439 4.15312 6.39782V7.95871C4.28298 7.90309 4.42662 7.87133 4.5783 7.87133H5.05537H5.52504C5.5255 7.12413 5.66674 6.40825 5.92479 5.74607C8.78784 4.97659 11.6978 7.07658 14.8624 7.07658C16.4429 7.07658 17.5219 6.7411 18.2515 6.33079L18.2683 6.33061C18.4028 6.82296 18.4745 7.33925 18.4749 7.87133H18.9445Z" fill="#583613"/>
<path d="M18.9444 7.87133C18.9445 7.87133 18.9445 7.87133 18.9444 7.87133H19.4215C19.5732 7.87133 19.7168 7.90309 19.8467 7.95871V6.39782C19.8467 2.86439 16.8269 0 13.1017 0H10.8981C10.4154 0 9.94489 0.0490423 9.49094 0.140457C12.5405 0.754481 14.8288 3.32226 14.8288 6.39782V7.07588C14.84 7.07597 14.8511 7.07658 14.8623 7.07658C16.4428 7.07658 17.5217 6.7411 18.2514 6.33079L18.2682 6.33061C18.4027 6.82296 18.4744 7.33925 18.4748 7.87133H18.9444Z" fill="#66493E"/>
<path d="M15.8321 17.2708L13.7159 17.7981C12.5911 18.0784 11.4089 18.0784 10.2841 17.7981L8.16788 17.2708L12 29.2243L15.8321 17.2708Z" fill="#FFFCFD"/>
<path d="M12.735 21.2532H11.26L10.7833 24.5204L11.9999 27.893L13.2164 24.521L12.735 21.2532Z" fill="#F33A3A"/>
<path d="M11.9999 19.7366L10.4182 20.4503L11.1918 21.7216H12.8081L13.5818 20.4503L11.9999 19.7366Z" fill="#E25959"/>
<path d="M15.8321 17.2708L17.7684 20.5138C17.8185 20.5976 17.8108 20.7015 17.7491 20.7779L11.9999 29.2243L15.8321 17.2708Z" fill="#666277"/>
<path d="M12.735 21.2532H11.26L10.6922 25.1449L12 29.2243L13.3082 25.1437L12.735 21.2532Z" fill="#F33A3A"/>
<path d="M11.9999 19.0803L10.4182 20.4502L11.1918 21.7214H12.8081L13.5818 20.4502L11.9999 19.0803Z" fill="#E25959"/>
<path d="M9.20922 10.186C8.97244 10.186 8.77988 10.0034 8.77988 9.77878V8.99465C8.77988 8.77006 8.97244 8.5874 9.20922 8.5874C9.446 8.5874 9.63856 8.77006 9.63856 8.99465V9.77878C9.63866 10.0033 9.446 10.186 9.20922 10.186Z" fill="#4D4A5B"/>
<path d="M14.7907 10.186C14.5539 10.186 14.3613 10.0034 14.3613 9.77878V8.99465C14.3613 8.77006 14.5539 8.5874 14.7907 8.5874C15.0275 8.5874 15.22 8.77006 15.22 8.99465V9.77878C15.2201 10.0033 15.0275 10.186 14.7907 10.186Z" fill="#4D4A5B"/>
<path d="M11.9999 13.8366C11.21 13.8366 10.5046 13.5285 10.1133 13.0126C9.97504 12.8303 10.0189 12.5753 10.2111 12.4441C10.2846 12.3939 10.3711 12.3674 10.4613 12.3674C10.5994 12.3674 10.7299 12.4308 10.8104 12.5369C11.034 12.8316 11.501 13.0221 12 13.0221C12.4991 13.0221 12.9661 12.8316 13.1897 12.5369C13.2701 12.4309 13.4006 12.3675 13.5387 12.3675C13.6289 12.3675 13.7154 12.3941 13.789 12.4443C13.9811 12.5754 14.025 12.8305 13.8868 13.0127C13.4952 13.5285 12.7899 13.8366 11.9999 13.8366Z" fill="#C699A2"/>
</svg>
