<svg width="89" height="74" viewBox="0 0 89 74" fill="none" xmlns="http://www.w3.org/2000/svg">
<path d="M49.7148 65.2256C48.7553 65.2256 47.9766 65.8731 47.9766 66.6709C47.9766 67.4687 48.7553 68.1162 49.7148 68.1162C50.6744 68.1162 51.4531 67.4687 51.4531 66.6709C51.4531 65.8731 50.6744 65.2256 49.7148 65.2256Z" fill="white"/>
<path d="M25.292 28.9482C24.3319 28.9482 23.5537 29.5953 23.5537 30.3936V57.999C23.5537 58.7973 24.3319 59.4444 25.292 59.4444C26.252 59.4444 27.0303 58.7973 27.0303 57.999V30.3936C27.0303 29.5953 26.252 28.9482 25.292 28.9482Z" fill="white"/>
<path d="M39.1982 28.9482C38.2382 28.9482 37.46 29.5953 37.46 30.3936V57.999C37.46 58.7973 38.2382 59.4444 39.1982 59.4444C40.1583 59.4444 40.9365 58.7973 40.9365 57.999V30.3936C40.9365 29.5953 40.1583 28.9482 39.1982 28.9482Z" fill="white"/>
<path d="M74.1377 23.2695H65.4463V18.8962C68.171 17.1978 69.4661 14.3271 68.6981 11.4927C67.9797 8.83476 65.341 6.66564 62.1329 6.09517C60.4275 5.79093 58.7099 5.89861 57.145 6.39334C55.5756 4.33623 52.8198 3.03516 49.8018 3.03516C48.6642 3.03516 47.5526 3.21857 46.5248 3.57151C43.6152 1.28951 39.7794 0 35.8086 0C30.5562 0 25.6577 2.22477 22.7663 5.86493C13.6803 5.44695 6.1709 11.4405 6.1709 18.831V36.1747C6.1709 38.5656 8.54921 40.5107 11.4727 40.5107C12.1139 40.5107 12.7284 40.4137 13.2979 40.2371V66.7734C13.2979 70.7582 17.1968 74 21.9893 74H56.7549C61.5473 74 65.4463 70.7582 65.4463 66.7734V62.4375H74.1377C78.9301 62.4375 82.8291 59.1957 82.8291 55.2109V30.4961C82.8291 26.5114 78.9301 23.2695 74.1377 23.2695ZM61.9697 65.3281H56.6662C55.7062 65.3281 54.9279 65.9752 54.9279 66.7734C54.9279 67.5717 55.7062 68.2043 56.6662 68.2043H61.6707C60.9532 69.8865 59.0209 71.1094 56.7549 71.1094H21.9893C19.7232 71.1094 17.791 69.9009 17.0734 68.2188H42.7635C43.7235 68.2188 44.5017 67.5717 44.5017 66.7734C44.5017 65.9752 43.7235 65.3281 42.7635 65.3281H16.7744V36.1429V25.9442C20.6791 25.4541 24.0602 23.4094 25.8378 20.3791C26.2004 20.3791 26.5199 20.4834 26.7607 20.6798C28.7225 22.2838 31.3184 23.1671 34.0703 23.1671C36.9225 23.1671 39.585 22.2283 41.5684 20.5229C41.6744 20.4315 41.8244 20.3791 41.9795 20.3791C44.6855 20.3791 46.4561 20.8596 47.2425 21.8072C47.8907 22.5884 47.8902 23.6738 47.8896 24.546V30.3936C47.8896 32.2777 49.343 33.8843 51.3662 34.481V57.9991C51.3662 58.7973 52.1444 59.4444 53.1045 59.4444C54.0645 59.4444 54.8428 58.7973 54.8428 57.9991V34.4808C56.866 33.8842 58.3193 32.2777 58.3193 30.3935V20.2092C59.537 20.4113 60.7797 20.4126 61.9697 20.2102V65.3281ZM57.369 16.9025C56.8301 16.6746 56.1877 16.6958 55.6721 16.9587C55.1567 17.2215 54.8426 17.688 54.8426 18.1907V30.3935C54.8426 31.1904 54.0628 31.8388 53.1043 31.8388C52.1458 31.8388 51.366 31.1904 51.366 30.3935V24.5469C51.3666 23.4086 51.3674 21.6882 50.1039 20.1654C48.63 18.389 45.8965 17.4883 41.9795 17.4883C40.8861 17.4883 39.8247 17.8625 39.068 18.5143C37.7466 19.6506 35.9716 20.2763 34.0703 20.2763C32.2359 20.2763 30.5056 19.6876 29.197 18.6175C28.3048 17.8892 27.1118 17.4883 25.8378 17.4883C24.5204 17.4883 23.2959 18.1238 22.7183 19.1073C21.2613 21.5881 18.3118 23.1436 15.0212 23.1671C14.067 23.1739 13.2977 23.8189 13.2977 24.6124V36.1062C13.2365 36.9574 12.4405 37.62 11.4727 37.62C10.4834 37.62 9.64746 36.9581 9.64746 36.1747V18.831C9.64746 13.2526 15.1373 8.73518 21.8862 8.73518C22.4106 8.73518 22.9378 8.76293 23.4647 8.81915C24.1678 8.89416 24.855 8.60655 25.2018 8.09274C27.367 4.884 31.4313 2.89062 35.8086 2.89062C39.2382 2.89062 42.5448 4.13576 44.8802 6.30691C45.4461 6.83329 46.3869 6.94256 47.105 6.5649C47.8999 6.14677 48.8325 5.92578 49.8018 5.92578C52.0146 5.92578 53.9924 7.09085 54.7234 8.82464C54.9012 9.24668 55.3041 9.57664 55.8145 9.71799C56.3247 9.85934 56.8851 9.79633 57.3318 9.54716C58.5166 8.88665 59.9625 8.6645 61.4044 8.92177C63.2818 9.25564 64.8862 10.5735 65.3062 12.1273C66.2956 15.7788 61.794 18.774 57.369 16.9025ZM65.4463 31.9414H72.3994V53.7656H65.4463V31.9414ZM79.3525 55.2109C79.3525 57.6018 77.0132 59.5469 74.1377 59.5469H65.4463V56.6562H74.1377C75.0977 56.6562 75.876 56.0092 75.876 55.2109V30.4961C75.876 29.6978 75.0977 29.0508 74.1377 29.0508H65.4463V26.1602H74.1377C77.0132 26.1602 79.3525 28.1053 79.3525 30.4961V55.2109Z" fill="white"/>
</svg>
