<svg width="50" height="50" viewBox="0 0 50 50" fill="none" xmlns="http://www.w3.org/2000/svg">
<path d="M49.5159 29.0458C48.5638 25.1437 46.2485 21.6982 42.9967 19.344C39.9012 17.1031 36.132 15.9685 32.3397 16.1254C30.5916 12.3796 27.5479 9.41982 23.7179 7.7583C23.342 7.59541 22.9051 7.76738 22.7416 8.14258C22.5784 8.51787 22.7506 8.9543 23.1265 9.11738C26.7696 10.6978 29.6335 13.5636 31.1907 17.1868C31.5316 17.9799 31.8079 18.8061 32.0119 19.6425C32.0661 19.8646 32.1161 20.093 32.1647 20.3409C32.1647 20.3411 32.1648 20.3413 32.1648 20.3414C32.9077 24.1275 32.2087 28.0318 30.1964 31.3353C28.2941 34.4581 25.3744 36.7875 21.9276 37.9475C21.8654 37.8063 21.8059 37.6637 21.7491 37.5199C21.7484 37.5183 21.7478 37.5167 21.7472 37.515C21.638 37.2385 21.5394 36.9572 21.4504 36.6726C21.4432 36.6497 21.4361 36.6269 21.4292 36.6039C21.388 36.4694 21.3488 36.3342 21.3122 36.1981C21.3113 36.1947 21.3104 36.1913 21.3095 36.1879C27.7924 34.0154 31.7129 27.2757 30.2967 20.5225C30.2967 20.5224 30.2967 20.5223 30.2967 20.5222C30.2618 20.3556 30.2304 20.2161 30.198 20.0834C29.9517 19.0743 29.5917 18.0962 29.1278 17.1762C29.1268 17.1742 29.1258 17.1725 29.1248 17.1705C29.1216 17.1644 29.1184 17.1584 29.1151 17.1523C27.7529 14.4646 25.4921 12.2765 22.7456 10.9895C21.429 10.3725 20.0237 9.97549 18.5913 9.8043L23.8624 4.9123C24.1296 4.66426 24.1766 4.25908 23.9733 3.95664L23.9698 3.95146C23.9697 3.95137 23.9697 3.95127 23.9696 3.95117L21.5328 0.327832C21.395 0.122949 21.164 0 20.9169 0H13.019C12.7717 0 12.5408 0.122949 12.4029 0.327832L9.96232 3.95684C9.75898 4.25928 9.80593 4.66445 10.0732 4.9125L15.3438 9.8041C14.8072 9.86807 14.273 9.96348 13.7448 10.0919C6.4497 11.8664 1.96057 19.236 3.73762 26.5199C4.47029 29.5229 6.22406 32.2102 8.67587 34.087C10.9285 35.8113 13.6862 36.7965 16.5026 36.8929C16.5161 36.951 16.5298 37.0086 16.5437 37.0659C16.5768 37.2015 16.6118 37.336 16.648 37.47C16.6564 37.5011 16.6654 37.5321 16.6739 37.5632C16.7034 37.6703 16.7339 37.777 16.7654 37.883C16.7741 37.9122 16.783 37.9414 16.7919 37.9706C16.8263 38.0842 16.8618 38.1972 16.8984 38.3095C16.9046 38.3288 16.9109 38.3481 16.9172 38.3675C16.9612 38.5005 17.0063 38.6327 17.0532 38.764C13.7895 38.7805 10.5743 37.7597 7.90154 35.8346C4.91854 33.6859 2.79545 30.5346 1.9236 26.961C1.05332 23.3941 1.48357 19.6269 3.13533 16.3531C4.7688 13.1155 7.4929 10.5451 10.806 9.11543C11.1822 8.95303 11.3553 8.51699 11.1927 8.14141C11.0301 7.76592 10.5933 7.59277 10.2172 7.75527C6.58555 9.32256 3.59981 12.1393 1.81005 15.6865C-0.000154278 19.2745 -0.471778 23.4031 0.481836 27.3118C1.43731 31.2278 3.76413 34.6813 7.03341 37.0362C9.93503 39.1263 13.4208 40.2461 16.9641 40.246C17.1947 40.246 17.4256 40.2398 17.6567 40.2304C20.4421 46.1854 26.4851 50.0001 33.0302 50C34.3558 50 35.7023 49.8435 37.046 49.5166C46.1365 47.3055 51.7304 38.1224 49.5159 29.0458ZM31.4644 32.1053C33.5091 28.7486 34.3155 24.8253 33.7728 20.9638C36.1875 21.1132 38.5406 21.9932 40.4683 23.4846C42.6571 25.178 44.1612 27.4962 44.8181 30.1886C46.4016 36.6787 42.4017 43.245 35.9016 44.8261C32.7529 45.5921 29.4939 45.0878 26.7249 43.4062C25.011 42.3654 23.6124 40.9505 22.6131 39.2779C26.2988 37.9835 29.4189 35.4635 31.4644 32.1053ZM21.0116 34.7229C20.6325 32.0266 21.1701 29.2965 22.5677 26.9209C24.0301 24.4353 26.2887 22.5816 28.9846 21.6343C29.7795 27.3119 26.4266 32.8161 21.0116 34.7229ZM13.4144 1.48174H20.5212L21.9616 3.62354H11.9741L13.4144 1.48174ZM12.4606 5.10527H21.475L16.9678 9.28838L12.4606 5.10527ZM16.2235 35.3948C13.8309 35.2479 11.4985 34.3807 9.57892 32.9111C7.36311 31.2149 5.84193 28.8836 5.17968 26.1691C3.59619 19.6791 7.59609 13.1127 14.0962 11.5315C16.8148 10.8702 19.5879 11.1468 22.1154 12.3311C24.3053 13.3571 26.1469 15.0263 27.3797 17.0803C23.5721 18.4172 20.3872 21.0478 18.3463 24.5654C16.43 27.8684 15.697 31.6576 16.2235 35.3948ZM36.6948 48.077C35.468 48.3754 34.2404 48.5182 33.0303 48.5181C26.8689 48.5176 21.1944 44.8122 18.7691 39.0803C18.7426 39.0175 18.7161 38.9548 18.6904 38.8917C18.68 38.8662 18.67 38.8405 18.6598 38.815C18.6282 38.7363 18.5969 38.6574 18.5667 38.5781C18.5622 38.5663 18.5579 38.5544 18.5534 38.5425C18.5187 38.4512 18.4847 38.3596 18.4518 38.2676C18.4508 38.2646 18.4498 38.2616 18.4487 38.2587C18.4132 38.1594 18.3787 38.0597 18.3452 37.9596C18.345 37.959 18.3448 37.9585 18.3446 37.9579C18.3107 37.8564 18.2778 37.7547 18.246 37.6526C18.2438 37.6454 18.2417 37.6381 18.2395 37.6309C18.2101 37.5357 18.1813 37.4405 18.1537 37.345C18.1447 37.3138 18.1363 37.2822 18.1274 37.2508C18.107 37.1785 18.0865 37.1063 18.0672 37.0337C18.039 36.928 18.0118 36.8219 17.9858 36.7151C17.9594 36.607 17.9346 36.4987 17.9107 36.3903C17.9014 36.3481 17.8923 36.305 17.8832 36.2619C17.8727 36.2126 17.8626 36.1633 17.8527 36.114C17.8461 36.0815 17.8396 36.0496 17.833 36.0165C17.8321 36.012 17.8308 36.0078 17.8299 36.0034C17.113 32.333 17.7427 28.5619 19.6305 25.3081C21.5279 22.0376 24.5086 19.6076 28.0695 18.4103C28.3194 18.9777 28.5263 19.5665 28.6877 20.169C25.5746 21.2104 22.9651 23.3202 21.2884 26.1701C19.5625 29.1034 19.0056 32.5184 19.7012 35.8344C19.7012 35.8346 19.7013 35.8349 19.7013 35.8351C19.7016 35.8367 19.702 35.8381 19.7023 35.8397C19.7146 35.8984 19.7271 35.957 19.7402 36.0156C19.7604 36.1069 19.78 36.1921 19.8 36.2739C19.8293 36.3941 19.8605 36.5136 19.8929 36.6325C19.9008 36.6616 19.9094 36.6906 19.9176 36.7197C19.9434 36.8121 19.9699 36.9042 19.9975 36.9957C20.0058 37.0233 20.0145 37.0508 20.0231 37.0783C20.0529 37.1749 20.0837 37.2711 20.1155 37.3668C20.122 37.386 20.1284 37.4052 20.1349 37.4243C20.1722 37.5348 20.2109 37.6445 20.2509 37.7536C20.2524 37.7575 20.2537 37.7614 20.2552 37.7653C21.3119 40.6399 23.295 43.0572 25.9541 44.6721C28.1142 45.9839 30.5398 46.6573 33.0052 46.6572C34.0865 46.6572 35.1758 46.5276 36.2532 46.2655C43.5483 44.4911 48.0374 37.1215 46.2603 29.8376C45.523 26.816 43.8346 24.2141 41.3775 22.3131C39.1169 20.5642 36.3344 19.5622 33.4953 19.465C33.4818 19.4067 33.4681 19.3489 33.454 19.2915C33.3143 18.7188 33.1436 18.1505 32.9441 17.5928C36.22 17.5732 39.4481 18.6052 42.1256 20.5436C45.0928 22.6915 47.2052 25.8355 48.0741 29.3964C50.0948 37.6792 44.9902 46.0592 36.6948 48.077Z" fill="white"/>
</svg>
