<svg width="34" height="34" viewBox="0 0 34 34" fill="none" xmlns="http://www.w3.org/2000/svg">
<path d="M17 34C26.3888 34 34 26.3888 34 17C34 7.61116 26.3888 0 17 0C7.61116 0 0 7.61116 0 17C0 26.3888 7.61116 34 17 34Z" fill="#6B3775"/>
<path fill-rule="evenodd" clip-rule="evenodd" d="M16.3578 24.456H17.6921C17.6921 24.456 18.0952 24.4118 18.3009 24.1899C18.4903 23.9863 18.4843 23.6039 18.4843 23.6039C18.4843 23.6039 18.4582 21.8135 19.2892 21.5498C20.1083 21.2901 21.1601 23.2802 22.275 24.0454C23.1181 24.6245 23.7587 24.4975 23.7587 24.4975L26.7397 24.456C26.7397 24.456 28.2992 24.3599 27.5598 23.1338C27.4992 23.0335 27.1291 22.2268 25.3433 20.5692C23.4742 18.8343 23.7245 19.1149 25.9761 16.1139C27.3473 14.2862 27.8955 13.1705 27.7243 12.6926C27.561 12.2374 26.5525 12.3577 26.5525 12.3577L23.196 12.3786C23.196 12.3786 22.9472 12.3447 22.7626 12.455C22.5823 12.5632 22.4662 12.8153 22.4662 12.8153C22.4662 12.8153 21.935 14.2296 21.2265 15.4323C19.7319 17.9703 19.1343 18.1043 18.8901 17.9467C18.3219 17.5794 18.4637 16.4712 18.4637 15.6839C18.4637 13.2244 18.8367 12.1989 17.7373 11.9334C17.3724 11.8453 17.1039 11.7871 16.1709 11.7777C14.9732 11.7653 13.9596 11.7813 13.3856 12.0625C13.0038 12.2495 12.7092 12.6662 12.8886 12.6901C13.1105 12.7198 13.6129 12.8256 13.8793 13.1883C14.2232 13.6562 14.2111 14.7072 14.2111 14.7072C14.2111 14.7072 14.4087 17.6024 13.7496 17.9621C13.2971 18.2088 12.6765 17.7052 11.344 15.4027C10.6613 14.2232 10.1458 12.9195 10.1458 12.9195C10.1458 12.9195 10.0464 12.6759 9.86913 12.5456C9.65397 12.3877 9.35335 12.3374 9.35335 12.3374L6.16384 12.3583C6.16384 12.3583 5.68504 12.3716 5.50927 12.5798C5.3529 12.765 5.49685 13.148 5.49685 13.148C5.49685 13.148 7.99391 18.9901 10.8213 21.9341C13.4138 24.6333 16.3578 24.456 16.3578 24.456Z" fill="white"/>
</svg>
