<svg width="168" height="15" viewBox="0 0 168 15" fill="none" xmlns="http://www.w3.org/2000/svg">
<line x1="0.446938" y1="6.50001" x2="167.447" y2="7.47094" stroke="#D5CCCC"/>
<path d="M81.1941 13.4192C82.4523 13.9868 83.8643 14.2827 85.2763 14.3074C85.3462 14.3074 85.4301 14.3074 85.5 14.3074C86.926 14.3074 88.338 14.036 89.6242 13.4932C90.7984 12.9998 91.861 12.2597 92.6441 11.3345C93.5387 10.2735 94 9.00309 94 7.68306C94 6.84425 94 6.01777 94 5.17895C94 4.26612 94 3.36563 94 2.4528C94 2.13208 94 1.81135 94 1.50297C94 0.923196 93.3431 0.540794 92.7418 0.750498L89.5543 1.92237C89.3446 1.99639 89.1069 2.00872 88.8972 1.93471C87.8627 1.57698 86.7163 1.39195 85.5 1.39195C84.2837 1.39195 83.1373 1.58931 82.1028 1.93471C81.8931 2.00872 81.6554 1.99639 81.4457 1.92237L78.2582 0.787628C77.6571 0.565589 77 0.960325 77 1.5401C77 1.97184 77 2.41592 77 2.84766C77 3.74815 77 4.64865 77 5.56148C77 6.32628 77 7.07875 77 7.84355C77 9.06477 77.4474 10.249 78.2442 11.2358C78.9992 12.161 80.0337 12.9011 81.1941 13.4192ZM88.6036 7.70786C89.3725 7.70786 90.0016 8.26296 90.0016 8.94141C90.0016 9.61987 89.3725 10.175 88.6036 10.175C87.8347 10.175 87.2056 9.61987 87.2056 8.94141C87.2056 8.25075 87.8347 7.70786 88.6036 7.70786ZM82.3964 7.70786C83.1653 7.70786 83.7944 8.26296 83.7944 8.94141C83.7944 9.61987 83.1653 10.175 82.3964 10.175C81.6275 10.175 80.9984 9.61987 80.9984 8.94141C80.9984 8.25075 81.6275 7.70786 82.3964 7.70786Z" fill="white"/>
</svg>
